<svg xmlns="http://www.w3.org/2000/svg" width="606" height="421" viewBox="0 0 606 421" role="img" aria-label="Nexus Cortex">
<rect width="606" height="421" rx="12" fill="#050510"/>
<g font-family="ui-monospace,SFMono-Regular,Menlo,Consolas,monospace" font-size="16" xml:space="preserve">
<text x="134.2" y="39" fill="#00d4ff">●</text>
<text x="240.3" y="39" fill="#00d4ff">●</text>
<text x="298.2" y="39" fill="#00d4ff">●</text>
<text x="356.1" y="39" fill="#00d4ff">●</text>
<text x="462.2" y="39" fill="#00d4ff">●</text>
<text x="134.2" y="58" fill="#3d4f73">│</text>
<text x="240.3" y="58" fill="#3d4f73">╰──╮</text>
<text x="298.2" y="58" fill="#3d4f73">│</text>
<text x="327.2" y="58" fill="#3d4f73">╭──╯</text>
<text x="462.2" y="58" fill="#3d4f73">│</text>
<text x="95.5" y="77" fill="#00d4ff">●</text>
<text x="105.2" y="77" fill="#3d4f73">───╯</text>
<text x="163.1" y="77" fill="#00d4ff">●</text>
<text x="172.8" y="77" fill="#3d4f73">──╮</text>
<text x="269.2" y="77" fill="#3d4f73">│</text>
<text x="298.2" y="77" fill="#3d4f73">│</text>
<text x="327.2" y="77" fill="#3d4f73">│</text>
<text x="404.4" y="77" fill="#3d4f73">╭──</text>
<text x="433.3" y="77" fill="#00d4ff">●</text>
<text x="462.2" y="77" fill="#3d4f73">╰───</text>
<text x="500.9" y="77" fill="#00d4ff">●</text>
<text x="192.1" y="96" fill="#3d4f73">╰─╮</text>
<text x="269.2" y="96" fill="#3d4f73">│</text>
<text x="298.2" y="96" fill="#3d4f73">│</text>
<text x="327.2" y="96" fill="#3d4f73">│</text>
<text x="385.1" y="96" fill="#3d4f73">╭─╯</text>
<text x="134.2" y="115" fill="#3d4f73">╭───────┴─────┴──┴──┴─────┴───────╮</text>
<text x="95.5" y="134" fill="#00d4ff">●</text>
<text x="105.2" y="134" fill="#3d4f73">───┤</text>
<text x="143.8" y="134" fill="#0d7ea8">■</text>
<text x="211.3" y="134" fill="#0d7ea8">▀</text>
<text x="269.2" y="134" fill="#0d7ea8">▀</text>
<text x="298.2" y="134" fill="#0d7ea8">▀</text>
<text x="327.2" y="134" fill="#0d7ea8">▀</text>
<text x="385.1" y="134" fill="#0d7ea8">▀</text>
<text x="452.6" y="134" fill="#0d7ea8">■</text>
<text x="462.2" y="134" fill="#3d4f73">├───</text>
<text x="500.9" y="134" fill="#00d4ff">●</text>
<text x="134.2" y="153" fill="#3d4f73">│</text>
<text x="172.8" y="153" fill="#8fb8e8">╔═════════════════════════╗</text>
<text x="462.2" y="153" fill="#3d4f73">│</text>
<text x="95.5" y="172" fill="#00d4ff">●</text>
<text x="105.2" y="172" fill="#3d4f73">───┤</text>
<text x="143.8" y="172" fill="#0d7ea8">■</text>
<text x="172.8" y="172" fill="#8fb8e8">║</text>
<text x="192.1" y="172" fill="#00d4ff">█▀▀</text>
<text x="230.7" y="172" fill="#00d4ff">█▀▜</text>
<text x="269.2" y="172" fill="#00d4ff">█▀▜</text>
<text x="307.9" y="172" fill="#00d4ff">▀█▀</text>
<text x="346.4" y="172" fill="#00d4ff">█▀▀</text>
<text x="385.1" y="172" fill="#00d4ff">▚</text>
<text x="404.4" y="172" fill="#00d4ff">▞</text>
<text x="423.7" y="172" fill="#8fb8e8">║</text>
<text x="452.6" y="172" fill="#0d7ea8">■</text>
<text x="462.2" y="172" fill="#3d4f73">├───</text>
<text x="500.9" y="172" fill="#00d4ff">●</text>
<text x="134.2" y="191" fill="#3d4f73">│</text>
<text x="172.8" y="191" fill="#8fb8e8">║</text>
<text x="192.1" y="191" fill="#00d4ff">█</text>
<text x="230.7" y="191" fill="#00d4ff">█▌▐</text>
<text x="269.2" y="191" fill="#00d4ff">██</text>
<text x="317.5" y="191" fill="#00d4ff">█</text>
<text x="346.4" y="191" fill="#00d4ff">█▀</text>
<text x="394.7" y="191" fill="#00d4ff">█</text>
<text x="423.7" y="191" fill="#8fb8e8">║</text>
<text x="462.2" y="191" fill="#3d4f73">│</text>
<text x="95.5" y="210" fill="#00d4ff">●</text>
<text x="105.2" y="210" fill="#3d4f73">───┤</text>
<text x="143.8" y="210" fill="#0d7ea8">■</text>
<text x="172.8" y="210" fill="#8fb8e8">║</text>
<text x="192.1" y="210" fill="#00d4ff">█▄▄</text>
<text x="230.7" y="210" fill="#00d4ff">█▄▟</text>
<text x="269.2" y="210" fill="#00d4ff">█</text>
<text x="288.6" y="210" fill="#00d4ff">▐</text>
<text x="317.5" y="210" fill="#00d4ff">█</text>
<text x="346.4" y="210" fill="#00d4ff">█▄▄</text>
<text x="385.1" y="210" fill="#00d4ff">▞</text>
<text x="404.4" y="210" fill="#00d4ff">▚</text>
<text x="423.7" y="210" fill="#8fb8e8">║</text>
<text x="452.6" y="210" fill="#0d7ea8">■</text>
<text x="462.2" y="210" fill="#3d4f73">├───</text>
<text x="500.9" y="210" fill="#00d4ff">●</text>
<text x="134.2" y="229" fill="#3d4f73">│</text>
<text x="172.8" y="229" fill="#8fb8e8">╚═════════════════════════╝</text>
<text x="462.2" y="229" fill="#3d4f73">│</text>
<text x="95.5" y="248" fill="#00d4ff">●</text>
<text x="105.2" y="248" fill="#3d4f73">───┤</text>
<text x="143.8" y="248" fill="#0d7ea8">■</text>
<text x="211.3" y="248" fill="#0d7ea8">▄</text>
<text x="269.2" y="248" fill="#0d7ea8">▄</text>
<text x="298.2" y="248" fill="#0d7ea8">▄</text>
<text x="327.2" y="248" fill="#0d7ea8">▄</text>
<text x="385.1" y="248" fill="#0d7ea8">▄</text>
<text x="452.6" y="248" fill="#0d7ea8">■</text>
<text x="462.2" y="248" fill="#3d4f73">├───</text>
<text x="500.9" y="248" fill="#00d4ff">●</text>
<text x="134.2" y="267" fill="#3d4f73">╰───────┬─────┬──┬──┬─────┬───────╯</text>
<text x="192.1" y="286" fill="#3d4f73">╭─╯</text>
<text x="269.2" y="286" fill="#3d4f73">│</text>
<text x="298.2" y="286" fill="#3d4f73">│</text>
<text x="327.2" y="286" fill="#3d4f73">│</text>
<text x="385.1" y="286" fill="#3d4f73">╰─╮</text>
<text x="95.5" y="305" fill="#00d4ff">●</text>
<text x="105.2" y="305" fill="#3d4f73">───╮</text>
<text x="163.1" y="305" fill="#00d4ff">●</text>
<text x="172.8" y="305" fill="#3d4f73">──╯</text>
<text x="269.2" y="305" fill="#3d4f73">│</text>
<text x="298.2" y="305" fill="#3d4f73">│</text>
<text x="327.2" y="305" fill="#3d4f73">│</text>
<text x="404.4" y="305" fill="#3d4f73">╰──</text>
<text x="433.3" y="305" fill="#00d4ff">●</text>
<text x="462.2" y="305" fill="#3d4f73">╭───</text>
<text x="500.9" y="305" fill="#00d4ff">●</text>
<text x="134.2" y="324" fill="#3d4f73">│</text>
<text x="240.3" y="324" fill="#3d4f73">╭──╯</text>
<text x="298.2" y="324" fill="#3d4f73">│</text>
<text x="327.2" y="324" fill="#3d4f73">╰──╮</text>
<text x="462.2" y="324" fill="#3d4f73">│</text>
<text x="134.2" y="343" fill="#00d4ff">●</text>
<text x="240.3" y="343" fill="#00d4ff">●</text>
<text x="298.2" y="343" fill="#00d4ff">●</text>
<text x="356.1" y="343" fill="#00d4ff">●</text>
<text x="462.2" y="343" fill="#00d4ff">●</text>
</g>
<text x="303.0" y="381" text-anchor="middle" font-family="ui-monospace,SFMono-Regular,Menlo,Consolas,monospace" font-size="22" letter-spacing="10" fill="#8fb8e8">N E X U S&#160;&#160;C O R T E X</text>
<text x="303.0" y="405" text-anchor="middle" font-family="ui-monospace,SFMono-Regular,Menlo,Consolas,monospace" font-size="12" letter-spacing="3" fill="#3d4f73">HEADLESS MULTI-PROVIDER AI AGENT HARNESS</text>
</svg>